Complete name                            : D:StuffFully.Loaded.2011.WEBRip.XviD.AC3-DQ1Fully.Loaded.2011.WEBRip.XviD.AC3-DQ1.avi

Format                                   : AVI

Format/Info                              : Audio Video Interleave

File size                                : 1 000 MiB

Duration                                 : 1h 15mn

Overall bit rate                         : 1 850 Kbps

Writing application                      : VirtualDubMod 1.5.10.3 | www.virtualdub-fr.org || (build 2550/release)

Writing library                          : VirtualDubMod build 2550/release



Video

ID                                       : 0

Format                                   : MPEG-4 Visual

Format profile                           : Simple@L1

Format settings, BVOP                    : No

Format settings, QPel                    : No

Format settings, GMC                     : No warppoints

Format settings, Matrix                  : Default (H.263)

Codec ID                                 : XVID

Codec ID/Hint                            : XviD

Duration                                 : 1h 15mn

Bit rate                                 : 1 712 Kbps

Width                                    : 720 pixels

Height                                   : 388 pixels

Display aspect ratio                     : 1.85:1

Frame rate                               : 23.976 fps

Color space                              : YUV

Chroma subsampling                       : 4:2:0

Bit depth                                : 8 bits

Scan type                                : Progressive

Compression mode                         : Lossy

Bits/(Pixel*Frame)                       : 0.256

Stream size                              : 925 MiB (93%)

Writing library                          : Lavc54.1.100



Audio

ID                                       : 1

Format                                   : MPEG Audio

Format version                           : Version 1

Format profile                           : Layer 3

Codec ID                                 : 55

Codec ID/Hint                            : MP3

Duration                                 : 1h 15mn

Bit rate mode                            : Constant

Bit rate                                 : 128 Kbps

Channel(s)                               : 2 channels

Sampling rate                            : 44.1 KHz

Compression mode                         : Lossy

Delay relative to video                  : 15ms

Stream size                              : 69.1 MiB (7%)

Alignment                                : Split accross interleaves

Interleave, duration                     : 42 ms (1.00 video frame)

Interleave, preload duration             : 500 ms















IMDB LINK....:: http://www.imdb.com/title/tt1390536/

Audio.............:: English

Subtitles........:: None


 
http://img442.imageshack.us/img442/4944/fullyloaded2011webripxv.jpg